<svg xmlns="http://www.w3.org/2000/svg" version="1.1" xmlns:xlink="http://www.w3.org/1999/xlink" xmlns:svgjs="http://svgjs.dev/svgjs" width="1500" height="1500" viewBox="0 0 1500 1500"><rect width="1500" height="1500" fill="#ffffff"></rect><g transform="matrix(0.6666666666666666,0,0,0.6666666666666666,248.09000895161142,51.420430107526954)"><svg viewBox="0 0 178 248" data-background-color="#f8f8f8" preserveAspectRatio="xMidYMid meet" height="2089" width="1500" xmlns="http://www.w3.org/2000/svg" xmlns:xlink="http://www.w3.org/1999/xlink"><g id="tight-bounds" transform="matrix(1,0,0,1,0.33997840661317014,0.4000000000000057)"><svg viewBox="0 0 177.3200431867737 247.2" height="247.2" width="177.3200431867737"><g><svg viewBox="0 0 397.4975999999999 554.1472072421044" height="247.2" width="177.3200431867737"><g><rect width="397.4975999999999" height="12.256804043397404" x="0" y="276.5172344591555" fill="#000000" opacity="1" stroke-width="0" stroke="transparent" fill-opacity="1" class="rect-yte-0" data-fill-palette-color="primary" rx="1%" id="yte-0" data-palette-color="#61777f"></rect></g><g><rect width="397.4975999999999" height="12.256804043397404" x="0" y="304.81697573213063" fill="#000000" opacity="1" stroke-width="0" stroke="transparent" fill-opacity="1" class="rect-yte-1" data-fill-palette-color="primary" rx="1%" id="yte-1" data-palette-color="#61777f"></rect></g><g transform="matrix(1,0,0,1,0.9887999999999693,349.1596542346835)"><svg viewBox="0 0 395.52 204.98755300742087" height="204.98755300742087" width="395.52"><g id="textblocktransform"><svg viewBox="0 0 395.52 204.98755300742087" height="204.98755300742087" width="395.52" id="textblock"><g><svg viewBox="0 0 395.52 135.9133264675592" height="135.9133264675592" width="395.52"><g transform="matrix(1,0,0,1,0,0)"><svg width="395.52" viewBox="4.4 -37.9 145.64 50.05" height="135.9133264675592" data-palette-color="#61777f"><path d="M4.4 0L4.4-34.1 8.6-34.1 8.6-19.35 25.85-19.35 25.85-34.1 30.05-34.1 30.05 0 25.85 0 25.85-15.6 8.6-15.6 8.6 0 4.4 0ZM37.8 0L37.8-25.2 41.8-25.65 41.8 0 37.8 0ZM37.15-32.35L37.15-32.35Q37.15-33.5 37.92-34.27 38.7-35.05 39.85-35.05L39.85-35.05Q41.05-35.05 41.87-34.27 42.7-33.5 42.7-32.35L42.7-32.35Q42.7-31.2 41.87-30.43 41.05-29.65 39.85-29.65L39.85-29.65Q38.7-29.65 37.92-30.43 37.15-31.2 37.15-32.35ZM68.7-24.55L68.7 2.4Q68.7 4.25 68.3 6 67.9 7.75 66.77 9.13 65.65 10.5 63.62 11.33 61.6 12.15 58.3 12.15L58.3 12.15Q56.2 12.1 54.65 11.9 53.1 11.7 51.7 11.33 50.3 10.95 49.15 10.45L49.15 10.45 50.2 6.95Q52.15 7.8 54.17 8.25 56.2 8.7 57.8 8.7L57.8 8.7Q59.55 8.7 60.85 8.35 62.15 8 63.02 7.18 63.9 6.35 64.32 5 64.75 3.65 64.75 1.65L64.75 1.65 64.75-2Q63.7-1.3 62.57-0.73 61.45-0.15 60.17 0.25 58.9 0.65 57.7 0.65L57.7 0.65Q53.05 0.65 50.35-2.63 47.65-5.9 47.65-12.4L47.65-12.4Q47.65-16.15 48.82-18.68 50-21.2 51.8-22.75 53.6-24.3 55.75-24.98 57.9-25.65 59.85-25.65L59.85-25.65Q62.4-25.65 64.52-25.23 66.65-24.8 68.7-24.55L68.7-24.55ZM58.15-2.85L58.15-2.85Q59.25-2.85 60.4-3.25 61.55-3.65 62.62-4.2 63.7-4.75 64.75-5.5L64.75-5.5 64.75-21.45Q64.15-21.6 63.35-21.8L63.35-21.8Q62.65-21.9 61.75-22.03 60.85-22.15 59.85-22.15L59.85-22.15Q57.75-22.15 56.25-21.4 54.75-20.65 53.77-19.35 52.8-18.05 52.35-16.3 51.9-14.55 51.9-12.6L51.9-12.6Q51.9-10.85 52.27-9.1 52.65-7.35 53.45-5.95 54.25-4.55 55.4-3.7 56.55-2.85 58.15-2.85ZM75.89 0L75.89-37.45 79.89-37.9 79.89-22Q81.39-23 82.87-23.75 84.34-24.5 85.89-25.08 87.44-25.65 88.89-25.65L88.89-25.65Q90.94-25.65 92.32-25.18 93.69-24.7 94.54-23.6 95.39-22.5 95.77-20.7 96.14-18.9 96.14-16.2L96.14-16.2 96.14 0 92.14 0 92.14-15.75Q92.14-17.25 92.09-18.43 92.04-19.6 91.67-20.43 91.29-21.25 90.52-21.7 89.74-22.15 88.34-22.15L88.34-22.15Q87.04-22.15 85.54-21.58 84.04-21 82.69-20.25 81.34-19.5 79.89-18.5L79.89-18.5 79.89 0 75.89 0ZM111.99 0L123.69-34.1 128.89-34.1 140.59 0 136.24 0 133.24-9.1 119.39-9.1 116.34 0 111.99 0ZM120.69-13.1L131.89-13.1 126.39-30.1 126.24-30.1 120.69-13.1ZM145.14 0L145.14-25.2 149.14-25.65 149.14 0 145.14 0ZM144.49-32.35L144.49-32.35Q144.49-33.5 145.26-34.27 146.04-35.05 147.19-35.05L147.19-35.05Q148.39-35.05 149.21-34.27 150.04-33.5 150.04-32.35L150.04-32.35Q150.04-31.2 149.21-30.43 148.39-29.65 147.19-29.65L147.19-29.65Q146.04-29.65 145.26-30.43 144.49-31.2 144.49-32.35Z" opacity="1" transform="matrix(1,0,0,1,0,0)" fill="#000000" class="wordmark-text-0" data-fill-palette-color="primary" id="text-0"></path></svg></g></svg></g><g transform="matrix(1,0,0,1,75.54432,167.9992009267147)"><svg viewBox="0 0 244.43135999999998 36.98835208070618" height="36.98835208070618" width="244.43135999999998"><g transform="matrix(1,0,0,1,0,0)"><svg width="244.43135999999998" viewBox="1.95 -31.74 271.02000000000004 41.019999999999996" height="36.98835208070618" data-palette-color="#000000"><path d="M15.58-29.3L1.95-29.3 1.95-28.03 5.86-28.03 5.86-1.27 1.95-1.27 1.95 0 15.43 0Q22.02 0 26.27-4.1L26.27-4.1Q30.47-8.15 30.47-14.65L30.47-14.65Q30.47-23.05 24.32-26.95L24.32-26.95Q20.56-29.3 15.58-29.3L15.58-29.3ZM10.06-28.03L15.43-28.03Q23.14-28.03 25.05-21L25.05-21Q25.78-18.41 25.78-14.84L25.78-14.84Q25.78-2.69 17.48-1.42L17.48-1.42Q16.55-1.27 15.58-1.27L15.58-1.27 10.06-1.27 10.06-28.03ZM45.31-20.02L45.31-20.02Q48.73-20.02 49.85-17.14L49.85-17.14Q50.24-16.21 50.24-15.14L50.24-15.14Q50.24-12.7 47.9-12.16L47.9-12.16Q46.68-11.91 44.43-11.96L44.43-11.96 39.26-12.11Q39.5-17.72 42.92-19.43L42.92-19.43Q44.04-20.02 45.31-20.02ZM53.81-4.69L53.81-4.69 52.59-5.13Q50.88-1.42 47.07-0.93L47.07-0.93Q46.58-0.88 46.14-0.88L46.14-0.88Q41.01-0.88 39.69-6.98L39.69-6.98Q39.3-8.69 39.26-10.74L39.26-10.74 45.11-10.64Q51.07-10.55 52.78-11.77L52.78-11.77Q54.1-12.74 54.1-14.55L54.1-14.55Q54.1-17.87 50.73-19.82L50.73-19.82Q48.34-21.24 45.21-21.24L45.21-21.24Q39.11-21.24 36.47-16.16L36.47-16.16Q35.1-13.53 35.1-10.21L35.1-10.21Q35.1-4.15 39.45-1.22L39.45-1.22Q42.04 0.49 45.36 0.49L45.36 0.49Q50.63 0.49 53.12-3.32L53.12-3.32Q53.51-4 53.81-4.69ZM62.01-19.53L65.42-19.53 65.42-20.75 55.95-20.75 55.95-19.53 58.15-19.53 64.11-3.17Q65.08-0.44 66.25 0L66.25 0Q66.84 0.24 67.72 0.24L67.72 0.24 68.35 0.24 75.24-17.82Q75.83-19.34 76.66-19.48L76.66-19.48Q76.9-19.53 77.09-19.53L77.09-19.53Q78.17-19.53 78.27-20.26L78.27-20.26Q78.32-20.51 78.32-20.75L78.32-20.75 70.8-20.75 70.8-19.53 74.46-19.53 68.26-2.88 62.01-19.53ZM90.62-20.02L90.62-20.02Q94.04-20.02 95.16-17.14L95.16-17.14Q95.55-16.21 95.55-15.14L95.55-15.14Q95.55-12.7 93.21-12.16L93.21-12.16Q91.98-11.91 89.74-11.96L89.74-11.96 84.56-12.11Q84.81-17.72 88.22-19.43L88.22-19.43Q89.35-20.02 90.62-20.02ZM99.11-4.69L99.11-4.69 97.89-5.13Q96.18-1.42 92.38-0.93L92.38-0.93Q91.89-0.88 91.45-0.88L91.45-0.88Q86.32-0.88 85-6.98L85-6.98Q84.61-8.69 84.56-10.74L84.56-10.74 90.42-10.64Q96.38-10.55 98.09-11.77L98.09-11.77Q99.41-12.74 99.41-14.55L99.41-14.55Q99.41-17.87 96.04-19.82L96.04-19.82Q93.64-21.24 90.52-21.24L90.52-21.24Q84.42-21.24 81.78-16.16L81.78-16.16Q80.41-13.53 80.41-10.21L80.41-10.21Q80.41-4.15 84.76-1.22L84.76-1.22Q87.35 0.49 90.67 0.49L90.67 0.49Q95.94 0.49 98.43-3.32L98.43-3.32Q98.82-4 99.11-4.69ZM112.69-1.22L112.69-1.22 110.05-1.22 110.05-31.74 102.72-31.74 102.72-30.52 106.39-30.52 106.39-4.15Q106.39-1.9 105.12-1.46L105.12-1.46Q104.38-1.22 102.72-1.22L102.72-1.22 102.72 0 113.91 0Q113.91-1.07 113.17-1.17L113.17-1.17Q112.98-1.22 112.69-1.22ZM121.33-10.4L121.33-10.4Q121.33-17.97 125.48-19.63L125.48-19.63Q126.55-20.02 127.72-20.02L127.72-20.02Q133.14-20.02 134.02-13.18L134.02-13.18Q134.17-12.01 134.17-10.6L134.17-10.6Q134.17-2.39 129.68-0.98L129.68-0.98Q128.8-0.73 127.87-0.73L127.87-0.73Q122.94-0.73 121.67-6.59L121.67-6.59Q121.33-8.3 121.33-10.4ZM127.87-21.24L127.87-21.24Q123.18-21.24 120.06-18.02L120.06-18.02Q117.18-15.04 117.18-10.6L117.18-10.6Q117.18-4.44 121.67-1.37L121.67-1.37Q124.4 0.49 127.72 0.49L127.72 0.49Q132.41 0.49 135.49-2.83L135.49-2.83Q138.32-5.86 138.32-10.4L138.32-10.4Q138.32-16.55 133.78-19.53L133.78-19.53Q131.09-21.24 127.87-21.24ZM152.28 8.06L148.86 8.06 148.86-2.05Q151.55 0.29 155.06 0.49L155.06 0.49Q159.41 0.49 162.34-2.78L162.34-2.78Q165.17-5.96 165.17-10.84L165.17-10.84Q165.17-16.41 162.09-19.29L162.09-19.29Q159.95-21.24 156.87-21.24L156.87-21.24Q152.13-21.24 149.79-17.48L149.79-17.48Q149.2-16.5 148.81-15.43L148.81-15.43 148.57-20.75 141.54-20.75 141.54-19.53 145.2-19.53 145.2 5.13Q145.2 7.37 143.93 7.81L143.93 7.81Q143.2 8.06 141.54 8.06L141.54 8.06 141.54 9.28 153.5 9.28Q153.5 8.2 152.77 8.11L152.77 8.11Q152.57 8.06 152.28 8.06L152.28 8.06ZM155.31-19.29L155.31-19.29Q159.56-19.29 160.68-13.96L160.68-13.96Q161.02-12.35 161.02-10.35L161.02-10.35Q161.02-3.17 157.16-1.27L157.16-1.27Q156.04-0.73 154.72-0.73L154.72-0.73Q150.96-0.73 149.55-4.69L149.55-4.69Q148.81-6.69 148.81-9.42L148.81-9.42Q148.81-15.77 152.08-18.21L152.08-18.21Q153.55-19.29 155.31-19.29ZM178.11-1.22L178.11-1.22 175.91-1.22 175.91-11.77Q176.06-16.06 178.89-18.16L178.89-18.16Q180.21-19.14 181.53-19.14L181.53-19.14Q183.97-19.14 184.89-16.46L184.89-16.46Q185.29-15.28 185.29-13.82L185.29-13.82 185.29-4.15Q185.29-1.9 184.21-1.46L184.21-1.46Q183.53-1.22 181.87-1.22L181.87-1.22 181.87 0 192.37 0Q192.37-1.07 191.63-1.17L191.63-1.17Q191.44-1.22 191.14-1.22L191.14-1.22 188.95-1.22 188.95-13.33 188.95-13.72Q189.73-17.29 192.41-18.7L192.41-18.7Q193.44-19.19 194.37-19.19L194.37-19.19Q196.86-19.19 197.88-16.6L197.88-16.6Q198.37-15.38 198.37-13.82L198.37-13.82 198.37-4.15Q198.37-1.9 197.3-1.46L197.3-1.46Q196.61-1.22 194.95-1.22L194.95-1.22 194.95 0 205.74 0Q205.74-1.07 205.01-1.17L205.01-1.17Q204.82-1.22 204.52-1.22L204.52-1.22 202.03-1.22 202.03-13.33Q202.03-18.36 198.76-20.36L198.76-20.36Q197.3-21.24 195.59-21.24L195.59-21.24Q191.88-21.24 189.63-17.77L189.63-17.77Q189.05-16.89 188.65-15.92L188.65-15.92Q187.78-19.78 184.8-20.9L184.8-20.9Q183.92-21.24 182.99-21.24L182.99-21.24Q179.47-21.24 177.18-18.26L177.18-18.26Q176.35-17.19 175.86-15.87L175.86-15.87 175.67-20.75 168.59-20.75 168.59-19.53 172.25-19.53 172.25-4.15Q172.25-1.9 170.98-1.46L170.98-1.46Q170.25-1.22 168.59-1.22L168.59-1.22 168.59 0 179.33 0Q179.33-1.03 178.6-1.17L178.6-1.17Q178.35-1.22 178.11-1.22ZM219.12-20.02L219.12-20.02Q222.54-20.02 223.66-17.14L223.66-17.14Q224.05-16.21 224.05-15.14L224.05-15.14Q224.05-12.7 221.71-12.16L221.71-12.16Q220.49-11.91 218.24-11.96L218.24-11.96 213.07-12.11Q213.31-17.72 216.73-19.43L216.73-19.43Q217.85-20.02 219.12-20.02ZM227.62-4.69L227.62-4.69 226.4-5.13Q224.69-1.42 220.88-0.93L220.88-0.93Q220.39-0.88 219.95-0.88L219.95-0.88Q214.82-0.88 213.51-6.98L213.51-6.98Q213.11-8.69 213.07-10.74L213.07-10.74 218.93-10.64Q224.88-10.55 226.59-11.77L226.59-11.77Q227.91-12.74 227.91-14.55L227.91-14.55Q227.91-17.87 224.54-19.82L224.54-19.82Q222.15-21.24 219.02-21.24L219.02-21.24Q212.92-21.24 210.28-16.16L210.28-16.16Q208.92-13.53 208.92-10.21L208.92-10.21Q208.92-4.15 213.26-1.22L213.26-1.22Q215.85 0.49 219.17 0.49L219.17 0.49Q224.44 0.49 226.93-3.32L226.93-3.32Q227.32-4 227.62-4.69ZM240.6-1.22L240.6-1.22 238.41-1.22 238.41-11.77Q238.55-16.31 241.63-18.31L241.63-18.31Q242.95-19.14 244.31-19.14L244.31-19.14Q247.29-19.14 248.37-16.36L248.37-16.36Q248.81-15.23 248.81-13.82L248.81-13.82 248.81-4.15Q248.81-1.9 247.54-1.46L247.54-1.46Q246.8-1.22 245.14-1.22L245.14-1.22 245.14 0 256.13 0Q256.13-1.07 255.4-1.17L255.4-1.17Q255.2-1.22 254.91-1.22L254.91-1.22 252.47-1.22 252.47-13.33Q252.47-18.21 249.1-20.31L249.1-20.31Q247.54-21.24 245.73-21.24L245.73-21.24Q242.12-21.24 239.77-18.36L239.77-18.36Q238.89-17.24 238.36-15.87L238.36-15.87 238.16-20.75 231.08-20.75 231.08-19.53 234.74-19.53 234.74-4.15Q234.74-1.9 233.47-1.46L233.47-1.46Q232.74-1.22 231.08-1.22L231.08-1.22 231.08 0 241.82 0Q241.82-1.07 241.09-1.17L241.09-1.17Q240.9-1.22 240.6-1.22ZM258.32-20.75L258.32-19.53 261.74-19.53 261.74-5.76Q262.08 0.34 267.36 0.54L267.36 0.54Q271.85 0.54 272.97-4.98L272.97-4.98Q272.97-5.03 272.97-5.08L272.97-5.08 271.65-5.32Q270.43-1.27 268.09-0.93L268.09-0.93Q265.45-1.03 265.4-4.69L265.4-4.69 265.4-19.53 272.97-19.53 272.97-20.75 265.4-20.75 265.4-26.42 261.74-25.39 261.74-20.75 258.32-20.75Z" opacity="1" transform="matrix(1,0,0,1,0,0)" fill="#000000" class="slogan-text-1" data-fill-palette-color="secondary" id="text-1"></path></svg></g></svg></g></svg></g></svg></g><g transform="matrix(1,0,0,1,76.53311999999998,0)"><svg viewBox="0 0 244.43135999999996 244.43135999999996" height="244.43135999999996" width="244.43135999999996"><g><svg xmlns="http://www.w3.org/2000/svg" xmlns:xlink="http://www.w3.org/1999/xlink" version="1.1" x="0" y="0" viewBox="5 5 90 90" enable-background="new 0 0 100 100" xml:space="preserve" height="244.43135999999996" width="244.43135999999996" class="icon-icon-0" data-fill-palette-color="accent" id="icon-0"><path d="M50 5C25.147 5 5 25.147 5 50S25.147 95 50 95 95 74.853 95 50 74.853 5 50 5M27.566 34.745A6.423 6.423 0 1 1 27.566 47.592 6.423 6.423 0 0 1 27.565 34.745M45.229 65.255A6.423 6.423 0 1 1 45.229 52.408 6.423 6.423 0 0 1 45.23 65.255M51.441 36.658L23.056 65.045A1.205 1.205 0 1 1 21.353 63.342L49.739 34.956A1.203 1.203 0 1 1 51.441 36.658M78.647 43.37C78.176 43.84 77.415 43.84 76.944 43.37L73.889 40.317V62.591A1.205 1.205 0 0 1 71.48 62.591V40.317L68.427 43.37A1.205 1.205 0 0 1 66.724 41.667L71.833 36.558A1.203 1.203 0 0 1 73.537 36.558L78.647 41.667C79.117 42.138 79.117 42.899 78.647 43.37M49.243 58.832C49.243 61.045 47.442 62.846 45.229 62.846S41.215 61.045 41.215 58.832 43.016 54.817 45.229 54.817 49.243 56.618 49.243 58.832M23.551 41.168C23.551 38.955 25.352 37.153 27.566 37.153S31.58 38.954 31.58 41.168 29.779 45.182 27.566 45.182 23.551 43.382 23.551 41.168" fill="#000000" data-fill-palette-color="accent"></path></svg></g></svg></g><g></g></svg></g><defs></defs></svg><rect width="177.3200431867737" height="247.2" fill="none" stroke="none" visibility="hidden"></rect></g></svg></g></svg>